<svg width="150" height="68" viewBox="0 0 150 68" fill="none" xmlns="http://www.w3.org/2000/svg">
<path d="M0.0605816 1.26159V1.64931L0.514943 1.87347C1.06018 2.14003 1.5933 2.61256 1.78716 3.00634C2.10824 3.63639 2.36268 4.99342 2.48385 6.74422C2.55654 7.82864 2.55654 23.18 2.48385 35.8658C2.43538 44.5895 2.42932 44.8198 2.14459 46.3101C1.90226 47.6186 1.56906 48.1033 0.569467 48.6L0 48.8787V49.2362V49.5875H5.87641C9.11147 49.5875 11.7528 49.5754 11.7528 49.5572C11.7528 49.5391 11.6741 49.3997 11.5711 49.2362C11.0198 48.3395 10.4685 46.9462 10.208 45.783C9.81422 44.0322 9.84451 45.8981 9.85662 23.8161C9.86268 12.8266 9.88086 3.82419 9.89297 3.81208C9.94144 3.76361 12.0981 3.35772 12.813 3.26078C13.8126 3.12751 17.4051 3.10933 18.2653 3.23049C21.6579 3.71515 24.0994 4.7935 25.8986 6.59883C26.2985 7.00473 26.7649 7.53785 26.9285 7.78623C27.5889 8.77977 28.0917 10.0035 28.328 11.2091C28.4673 11.8997 28.4855 13.6081 28.3582 14.2382C28.0856 15.6073 27.4738 16.8311 26.6014 17.7398C26.3833 17.97 26.2318 18.1699 26.2621 18.1941C29.0428 20.1994 31.357 20.5447 33.1078 19.218C34.3922 18.2487 35.2524 16.0798 35.3615 13.5415C35.4039 12.5843 35.3191 11.6877 35.101 10.7002C34.2347 6.79875 31.3146 3.66062 27.292 2.29753C24.9596 1.50392 22.3546 1.09802 18.538 0.94051C17.7201 0.910217 13.231 0.879929 8.56018 0.879929H0.0605816V1.26159Z" fill="white"/>
<path d="M48.7076 15.6255V16.0193L49.0529 16.1768C50.1131 16.6614 50.6583 17.4914 50.9188 19.0241C51.1187 20.2357 51.1308 21.5625 51.0945 38.9554C51.0581 54.737 51.0642 56.2091 51.1551 56.7604C51.5791 59.3048 53.3724 61.3888 55.7956 62.1521C56.3954 62.346 57.292 62.4914 57.8615 62.4914H58.2613L58.2976 58.4445C58.3219 56.2212 58.3401 47.2188 58.3401 38.4405C58.3401 22.6348 58.3643 20.3508 58.546 19.1756C58.7944 17.5823 59.3518 16.6796 60.4059 16.1949L60.8239 15.995V15.6558V15.3165L58.3582 15.2802C57.0073 15.2559 54.2811 15.2378 52.3001 15.2378H48.7076V15.6255Z" fill="white"/>
<path d="M85.7532 17.0916C83.7783 17.4006 82.6575 18.9757 82.7726 21.2657C82.8695 23.1195 83.748 24.3129 85.2989 24.7188C85.8259 24.8582 86.8922 24.8582 87.4132 24.7249C88.4128 24.4704 89.1216 23.901 89.5275 23.0407C89.8728 22.3198 89.9333 22.0108 89.9333 20.9628C89.9333 19.9208 89.8728 19.6057 89.5335 18.8909C89.1397 18.0609 88.4067 17.4551 87.4798 17.2006C87.1405 17.1098 86.0804 17.0431 85.7532 17.0916ZM86.7649 17.4248C87.2193 17.5217 87.5161 17.6914 87.8493 18.0306C88.4309 18.6304 88.6854 19.4058 88.7338 20.7204C88.7581 21.4777 88.7459 21.7261 88.643 22.2107C88.3461 23.6586 87.5949 24.4401 86.4499 24.4947C85.3413 24.5492 84.5295 23.8404 84.1357 22.4773C84.0145 22.0532 84.0024 21.8594 84.0024 20.9628C84.0024 20.1086 84.0266 19.8541 84.1357 19.4664C84.2993 18.8606 84.5234 18.4365 84.8566 18.0791C85.2019 17.7095 85.4261 17.5702 85.8502 17.4551C86.256 17.346 86.3651 17.34 86.7649 17.4248Z" fill="white"/>
<path d="M126.034 17.2067C125.337 17.3582 124.84 17.7035 124.568 18.2305C124.435 18.491 124.41 18.6182 124.41 19.0544C124.41 19.4967 124.435 19.6178 124.568 19.8783C124.828 20.3751 125.392 20.8355 126.41 21.3868C126.906 21.6534 127.464 21.9866 127.651 22.1259C128.397 22.6712 128.56 23.4284 128.057 23.9979C127.645 24.4704 126.949 24.6219 126.21 24.3977C125.979 24.325 125.676 24.1857 125.531 24.0827C125.234 23.8646 124.943 23.4345 124.847 23.0649C124.798 22.8529 124.756 22.8105 124.641 22.8105C124.459 22.8105 124.453 22.9619 124.61 23.4345C124.913 24.319 125.483 24.7491 126.506 24.8763C127.706 25.0278 128.639 24.6098 129.105 23.7071C129.305 23.3194 129.342 22.5076 129.172 22.1259C128.905 21.5322 128.384 21.1142 126.894 20.3206C125.561 19.6118 125.107 19.0908 125.283 18.4547C125.361 18.1518 125.755 17.758 126.107 17.6247C126.664 17.4127 127.603 17.6489 127.985 18.1033C128.076 18.2124 128.215 18.4426 128.294 18.6122C128.421 18.8909 128.463 18.9333 128.615 18.9333H128.79L128.693 18.6122C128.5 17.9458 128.124 17.5157 127.555 17.3036C127.13 17.1461 126.482 17.1037 126.034 17.2067Z" fill="white"/>
<path d="M139.598 17.2915C138.386 17.6368 137.581 18.491 137.235 19.7814C137.157 20.0662 137.132 20.4115 137.132 21.0536C137.132 22.0532 137.211 22.4531 137.557 23.1558C137.938 23.9434 138.592 24.4826 139.489 24.7673C140.052 24.943 141.3 24.9551 141.846 24.7855C143.057 24.422 143.821 23.6223 144.16 22.3864C144.317 21.8291 144.317 20.2721 144.166 19.7269C143.815 18.4486 142.954 17.5823 141.731 17.2673C141.228 17.1401 140.089 17.1522 139.598 17.2915ZM141.44 17.6126C141.918 17.7883 142.373 18.2305 142.639 18.7758C142.997 19.5088 143.063 19.8602 143.063 21.0536C143.063 22.1986 142.966 22.7075 142.645 23.3436C141.955 24.7007 140.301 25.0217 139.253 24.004C138.683 23.4406 138.386 22.6045 138.326 21.3808C138.211 19.0302 139.156 17.4914 140.713 17.4793C140.955 17.4793 141.216 17.5278 141.44 17.6126Z" fill="white"/>
<path d="M71.4257 20.9628V24.6885H71.9709H72.5161L72.5282 23.0044L72.5464 21.3263L73.4551 21.2899C74.8728 21.2293 75.5331 20.9385 75.8845 20.2237C76.042 19.9147 76.0602 19.8057 76.0602 19.2968C76.0602 18.6364 75.945 18.3275 75.5634 17.9397C75.0363 17.4127 74.2912 17.237 72.607 17.237H71.4257V20.9628ZM73.8005 17.6368C74.1882 17.7641 74.5335 18.0851 74.7031 18.4608C74.8243 18.7273 74.8485 18.8788 74.8485 19.3876C74.8485 19.9208 74.8303 20.0238 74.6971 20.2661C74.4123 20.7689 74.0246 20.9325 73.1098 20.9325H72.5161V19.2362V17.5399H73.019C73.3158 17.5399 73.6369 17.5763 73.8005 17.6368Z" fill="white"/>
<path d="M76.9386 20.9628V24.6885H77.4838H78.0291L78.0412 23.0044L78.0594 21.3263L78.4592 21.3081L78.859 21.2899L80.0586 22.9923L81.2581 24.6885H81.8821H82.5121L81.2762 22.968L80.0404 21.2475L80.3251 21.1385C80.9128 20.9204 81.2096 20.6538 81.4338 20.1752C81.5489 19.9268 81.5731 19.7754 81.567 19.2968C81.567 18.6243 81.4883 18.4002 81.1248 18.0064C80.5977 17.4369 79.8041 17.237 78.0836 17.237H76.9386V20.9628ZM79.277 17.6308C79.9374 17.8246 80.3251 18.3941 80.3796 19.2423C80.416 19.836 80.2827 20.254 79.9677 20.569C79.689 20.8477 79.374 20.9325 78.6107 20.9325H78.0291V19.2362V17.5399H78.5016C78.7621 17.5399 79.1135 17.5823 79.277 17.6308Z" fill="white"/>
<path d="M90.933 20.9628V24.6885H91.4782H92.0235V23.0286V21.3747L92.8292 21.3384C94.0469 21.2839 94.6406 21.1142 95.0949 20.678C95.4463 20.3388 95.5614 20.0116 95.5675 19.3513C95.5675 18.8242 95.5493 18.7394 95.3857 18.4183C95.0707 17.8004 94.4346 17.443 93.3865 17.2976C93.1563 17.2673 92.5081 17.237 91.9508 17.237H90.933V20.9628ZM93.435 17.7095C93.7985 17.8731 94.1741 18.3093 94.2892 18.697C94.5012 19.4119 94.3619 20.2297 93.9681 20.5872C93.647 20.878 93.3684 20.9567 92.6596 20.9628H92.0537L92.0356 19.3271C92.0295 18.4305 92.0356 17.655 92.0537 17.6066C92.1022 17.4854 93.0957 17.5581 93.435 17.7095Z" fill="white"/>
<path d="M96.4459 20.993V24.7491H98.7783H101.111V24.5673V24.3856L99.3417 24.3735L97.5666 24.3553L97.5484 22.7014L97.5363 21.0536H99.0206H100.505V20.8416V20.6295L99.0388 20.6174L97.5666 20.5992L97.5484 19.0968L97.5363 17.6005H99.3235H101.111V17.4187V17.237H98.7783H96.4459V20.993Z" fill="white"/>
<path d="M102.08 20.987V24.7491H102.625H103.17V23.0528V21.3565L103.613 21.3626H104.049L105.23 23.0528L106.412 24.743L107.036 24.7491C107.52 24.7491 107.647 24.7309 107.617 24.6703C107.587 24.634 107.054 23.8828 106.43 23.0104C105.8 22.132 105.273 21.3868 105.26 21.3444C105.236 21.2899 105.339 21.2232 105.527 21.1566C105.957 21.0051 106.309 20.7144 106.527 20.3266C106.702 20.0116 106.714 19.9571 106.714 19.3573C106.714 18.7818 106.696 18.6909 106.551 18.4123C106.115 17.5883 105.333 17.3097 103.31 17.2551L102.08 17.2188V20.987ZM104.455 17.6732C104.824 17.7822 105.26 18.2123 105.406 18.6061C105.563 19.012 105.576 19.7087 105.442 20.0904C105.309 20.466 104.964 20.7931 104.6 20.9022C104.431 20.9567 104.055 20.993 103.734 20.993H103.17V19.2967V17.6005H103.691C103.982 17.6005 104.328 17.6307 104.455 17.6732Z" fill="white"/>
<path d="M107.29 17.4672V17.7216H108.532H109.774V21.2354V24.7491H110.319H110.864V21.2354V17.7216H112.106H113.348V17.5096V17.2975H112.421C111.906 17.2975 110.543 17.2794 109.392 17.2551L107.29 17.2188V17.4672Z" fill="white"/>
<path d="M114.354 17.4611C114.408 17.5581 115.069 18.5455 115.814 19.6602L117.165 21.6897V23.2164V24.7491H117.71H118.255V23.1497V21.5443L119.618 19.4179L120.975 17.2915L120.697 17.3097L120.412 17.3278L119.255 19.1392C118.619 20.1328 118.08 20.9506 118.055 20.9567C118.031 20.9567 117.468 20.1388 116.807 19.1271L115.596 17.2976H114.917H114.245L114.354 17.4611Z" fill="white"/>
<path d="M130.25 21.0233V24.7491H130.572C130.741 24.7491 130.99 24.7672 131.117 24.7854L131.341 24.8278V22.9983V21.1748H133.249H135.158V22.9922V24.8096H135.703H136.248V21.0536V17.2975H135.703H135.158V19.0544V20.8113H133.249H131.341V19.0544V17.2975H130.796H130.25V21.0233Z" fill="white"/>
<path d="M145.275 21.0415V24.8097H145.82H146.365V23.1134V21.4171H147.056C149.116 21.4171 150.061 20.678 149.915 19.1817C149.83 18.2608 149.237 17.6792 148.152 17.449C147.916 17.4006 147.189 17.34 146.504 17.3218L145.275 17.2794V21.0415ZM147.716 17.7822C148.322 18.0124 148.667 18.5516 148.716 19.3634C148.746 19.9329 148.619 20.3691 148.334 20.6538C148.043 20.9446 147.668 21.0536 146.959 21.0536H146.365V19.3573V17.6611H146.88C147.244 17.6611 147.486 17.6974 147.716 17.7822Z" fill="white"/>
<path d="M28.2916 24.5431C24.6325 24.8763 21.252 26.4211 18.9317 28.8141C17.1567 30.6497 16.1692 32.5762 15.6846 35.1388C15.5271 35.9749 15.4604 37.9014 15.5634 38.7798C15.7936 40.7911 16.4721 42.7297 17.4717 44.2139C19.2468 46.8674 21.5428 48.485 29.8061 52.9195C33.435 54.8642 36.6943 57.1905 37.8998 58.7051C38.3603 59.2806 38.8449 60.2196 39.0267 60.886C39.2145 61.5766 39.2145 63.0366 39.0267 63.7212C38.857 64.327 38.5117 65.0722 38.1058 65.678C37.7242 66.2475 36.6458 67.3501 36.143 67.6772L35.7855 67.9135L36.3853 67.9316C37.5242 67.968 38.9903 67.756 40.105 67.3925C43.0432 66.4292 44.891 64.2362 45.3211 61.2253C45.4241 60.5104 45.3574 58.8686 45.1999 58.1356C44.9091 56.7846 44.2306 55.2216 43.4552 54.1312C42.9342 53.3981 41.6801 52.1441 40.7411 51.4171C39.2448 50.2539 37.8574 49.3876 29.1761 44.1837C27.0073 42.8872 25.0747 41.6938 24.8687 41.5302C24.2266 41.0152 23.1906 39.8945 22.7363 39.216C21.8154 37.8408 21.4398 36.6837 21.4398 35.2297C21.4398 33.3577 22.1486 31.7281 23.5541 30.3711C24.4689 29.4866 25.4382 28.905 26.7286 28.4749C28.0977 28.0205 29.2124 27.869 30.8906 27.9175C33.1381 27.9781 34.7678 28.384 36.7427 29.3533C39.0206 30.474 40.6866 31.9825 41.6983 33.8484C42.4677 35.266 43.1341 37.3561 43.5945 39.8278L43.7641 40.7426H44.5396H45.315V32.655V24.5673H44.5699H43.8187L43.7217 25.0581C43.6187 25.5972 43.3098 26.3 43.0372 26.6211C42.7827 26.924 42.3405 27.1118 41.8558 27.1118C41.2621 27.1118 40.935 27.033 38.6208 26.3545C34.9192 25.264 33.3623 24.8824 31.6539 24.6582C30.9511 24.5613 28.849 24.4946 28.2916 24.5431Z" fill="white"/>
<path d="M105.309 28.9838C104.661 29.2079 104.321 29.6441 104.321 30.262C104.321 30.9405 104.679 31.3404 105.83 31.9644C106.884 32.5399 107.151 32.8246 107.09 33.3335C106.969 34.424 105.085 34.2846 104.709 33.1578C104.643 32.9458 104.582 32.867 104.497 32.867C104.231 32.867 104.497 33.6425 104.891 34.006C105.224 34.3149 105.509 34.4058 106.139 34.4119C106.569 34.4119 106.708 34.3876 106.993 34.2544C107.52 34.006 107.835 33.5092 107.835 32.9155C107.835 32.237 107.472 31.8493 106.193 31.1647C105.315 30.6982 104.988 30.3892 104.988 30.0379C104.988 29.735 105.164 29.4623 105.43 29.3351C105.685 29.214 106.193 29.2018 106.46 29.317C106.721 29.426 107.029 29.7471 107.114 30.0015C107.163 30.159 107.211 30.2014 107.332 30.2014C107.466 30.2014 107.478 30.1833 107.441 30.0318C107.369 29.7107 107.157 29.3472 106.951 29.1958C106.533 28.8747 105.872 28.7838 105.309 28.9838Z" fill="white"/>
<path d="M88.855 28.9656C88.8308 28.9898 88.8126 30.2075 88.8126 31.6675V34.321H89.1761H89.5396L89.5517 32.2309C89.5638 31.0799 89.5699 29.8743 89.5699 29.5472V28.9595L89.2367 28.9413C89.0489 28.9292 88.8793 28.9413 88.855 28.9656Z" fill="white"/>
<path d="M90.2666 31.6493V34.321H90.4483H90.6301V32.4369V30.5528L92.5202 32.4066C93.5622 33.4244 94.4346 34.2604 94.4588 34.2604C94.4831 34.2604 94.5073 33.073 94.5073 31.6251V28.9898H94.3256H94.1438V30.8375C94.1438 31.8553 94.1256 32.6853 94.0954 32.6853C94.0711 32.6853 93.3563 31.9886 92.5081 31.1344C91.66 30.2863 90.8058 29.4502 90.618 29.2806L90.2666 28.9777V31.6493Z" fill="white"/>
<path d="M95.2706 29.4866C96.4701 32.2976 97.3849 34.3816 97.4152 34.3816C97.4516 34.3816 99.7052 29.3049 99.7658 29.0928C99.79 28.9959 99.7658 28.9838 99.6022 29.0019C99.4084 29.0201 99.4023 29.0262 98.5239 31.0375L97.6394 33.0549L97.5546 32.8549C97.5061 32.7459 97.1123 31.8311 96.6761 30.8194L95.8886 28.9898H95.4705H95.0586L95.2706 29.4866Z" fill="white"/>
<path d="M100.384 31.6554V34.321H102.08H103.776V34.1695V34.0181H102.474H101.171V33.2729C101.171 32.867 101.189 32.3521 101.214 32.1219L101.25 31.716H102.298H103.352V31.5342V31.3525H102.292H101.232V30.3226V29.2927L102.492 29.2806C103.74 29.2624 103.746 29.2624 103.764 29.1231L103.782 28.9898H102.086H100.384V31.6554Z" fill="white"/>
<path d="M107.896 29.1715V29.3533H108.774H109.653V31.8371V34.321H110.077H110.501V31.8371V29.3533H111.379H112.258V29.1715V28.9898H110.077H107.896V29.1715Z" fill="white"/>
<path d="M113.409 29.0565C113.409 29.1534 112.894 33.6061 112.833 34.0605C112.797 34.315 112.797 34.321 112.979 34.321C113.191 34.321 113.148 34.5028 113.384 32.4733C113.463 31.7402 113.542 31.1162 113.554 31.086C113.572 31.0193 113.724 31.298 114.657 33.0609C115.02 33.7515 115.329 34.321 115.347 34.321C115.366 34.321 115.656 33.8121 115.996 33.1821C116.335 32.5581 116.771 31.7584 116.971 31.401L117.322 30.7467L117.583 32.2794C117.728 33.1154 117.868 33.9333 117.904 34.0908L117.964 34.3816H118.346C118.558 34.3816 118.746 34.3634 118.758 34.3331C118.77 34.3089 118.613 33.2972 118.401 32.0795C118.189 30.8618 117.989 29.6865 117.952 29.4563C117.91 29.2322 117.861 29.0625 117.831 29.0807C117.807 29.0928 117.304 29.9955 116.71 31.0799C116.123 32.1582 115.614 33.0367 115.59 33.0185C115.559 33.0003 115.099 32.134 114.554 31.092C113.506 29.0746 113.409 28.905 113.409 29.0565Z" fill="white"/>
<path d="M119.388 29.0322C119.364 29.0504 119.346 30.2681 119.346 31.7281V34.3816L121.03 34.3695L122.708 34.3513L122.726 34.212L122.744 34.0787H121.472H120.194V32.9276V31.7766H121.254H122.314V31.5948V31.4131H121.254H120.194V30.3529V29.2927H121.472H122.744L122.726 29.1534L122.708 29.0201L121.066 29.0019C120.164 28.9959 119.412 29.008 119.388 29.0322Z" fill="white"/>
<path d="M128.179 29.0262C128.148 29.0504 128.13 29.1352 128.13 29.214V29.3533H129.008H129.887V31.8675V34.3816H130.311H130.735V31.8675V29.3533H131.614H132.492V29.2019V29.0504H130.62C129.596 29.0504 128.633 29.0322 128.487 29.0141C128.342 28.9959 128.203 29.0019 128.179 29.0262Z" fill="white"/>
<path d="M123.356 31.6978L123.374 34.3513L123.538 34.3695L123.708 34.3876L123.72 32.5096L123.738 30.6255L125.628 32.4733C126.664 33.491 127.53 34.321 127.548 34.321C127.567 34.321 127.585 33.1336 127.585 31.6857V29.0504H127.403H127.221L127.209 30.8981L127.191 32.7519L125.301 30.8981C124.265 29.8804 123.399 29.0504 123.38 29.0504C123.356 29.0504 123.35 30.2439 123.356 31.6978Z" fill="white"/>
<path d="M68.536 52.0351C67.2153 52.2895 66.1127 52.9317 65.307 53.9313C64.374 55.0823 63.9621 56.4515 64.1074 57.8933C64.3801 60.6316 66.7003 62.7338 69.4507 62.7338C71.9952 62.7338 74.1155 61.0435 74.7395 58.5173C74.891 57.8994 74.8728 56.6756 74.7032 56.0395C74.0792 53.7071 72.0436 52.0593 69.6688 51.9745C69.2266 51.9624 68.8146 51.9805 68.536 52.0351Z" fill="white"/>
</svg>
