<svg width="224" height="39" viewBox="0 0 224 39" fill="none" xmlns="http://www.w3.org/2000/svg">
<path d="M54.4499 0.120911H23.026C13.0778 0.120911 10.8982 9.6776 10.8982 9.6776H47.902L54.4499 0.120911Z" fill="white"/>
<path d="M139.647 0.120911H108.127C98.1811 0.120911 96.0015 9.6776 96.0015 9.6776H136.269L139.647 0.120911Z" fill="white"/>
<path d="M184.129 0.120911H143.939L140.555 9.6776H180.747L184.129 0.120911Z" fill="white"/>
<path d="M44.5469 26.555C44.6264 25.2202 44.5473 23.8808 44.3111 22.5647C44.2682 22.3255 44.2231 22.0886 44.1712 21.8528C43.8222 20.1 43.0473 18.4599 41.9149 17.0773C41.6116 16.7223 41.2812 16.3915 40.9266 16.0879C40.2001 15.4712 39.388 14.9631 38.5157 14.5795C37.6705 14.2093 36.7876 13.932 35.8826 13.7526C35.016 13.5803 34.1377 13.4739 33.2551 13.4344C32.9031 13.4164 32.5488 13.4096 32.1968 13.4096H10.7053C10.7053 24.5457 21.9723 24.5604 21.9723 24.5604H30.561C31.0557 24.5604 31.5302 24.7569 31.8801 25.1068C32.2299 25.4566 32.4264 25.9311 32.4264 26.4258C32.4264 26.9206 32.2299 27.395 31.8801 27.7449C31.5302 28.0947 31.0557 28.2912 30.561 28.2912H4.08183L0.704102 37.8479H32.374C42.3187 37.8479 44.3111 28.2924 44.3111 28.2912C44.4305 27.7192 44.5093 27.1382 44.5469 26.555Z" fill="white"/>
<path d="M71.9545 13.4017H59.4465L42.5071 38.1198H67.6528L75.6797 28.2935H61.8156L71.9545 13.4017Z" fill="white"/>
<path d="M85.4417 9.67873L83.7348 0.120911H68.5508L61.9995 9.67873H85.4417Z" fill="white"/>
<path d="M121.316 13.4017L112.159 24.5558H118.428L117.161 28.1242H111.34C103.413 28.1242 105.224 20.9852 108.196 14.1982C108.421 13.6781 108.534 13.4084 108.534 13.4084H94.6622C86.2393 36.2403 100.407 38.1198 114.214 38.1198H126.117L134.852 13.4017H121.316Z" fill="white"/>
<path d="M73.6016 13.4017L77.9179 38.1198H90.5308L86.1095 13.4017H73.6016Z" fill="white"/>
<path d="M147.85 28.2935L149.168 24.5626H162.633L171.737 13.4084H157.678L149.659 23.1761L153.11 13.4118H139.244L130.506 38.1198H170.696L174.172 28.2901L147.85 28.2935Z" fill="white"/>
<path d="M112.159 24.5592L121.315 13.4017H134.853L125.751 24.5592H112.159Z" fill="white"/>
<path d="M210.939 0.120911H187.864L184.48 9.6776H222.906C220.829 0.208908 210.939 0.120911 210.939 0.120911Z" fill="white"/>
<path d="M223.296 13.4017H201.673H201.739L193.714 23.1738L193.689 23.1806L197.221 13.4017H183.162L174.172 38.1198H188.299L192.182 27.3695L200.958 38.1198H217.064L205.266 24.5604H210.279C210.279 24.5604 223.296 24.5604 223.296 13.4062" fill="white"/>
</svg>
