<svg width="120" height="78" viewBox="0 0 120 78" fill="none" xmlns="http://www.w3.org/2000/svg">
<path d="M0 0V23.0279H25.6576V77.4594H47.695V0H0Z" fill="white"/>
<path d="M76.675 11.2115C76.675 5.07979 71.7047 0.109558 65.573 0.109558C59.4413 0.109558 54.4711 5.07979 54.4711 11.2115C54.4711 17.3432 59.4413 22.3134 65.573 22.3134C71.7047 22.3134 76.675 17.3432 76.675 11.2115Z" fill="white"/>
<path d="M65.8008 31.5483V33.7135C65.8008 33.9326 65.6255 34.108 65.4063 34.108H62.1104C61.8912 34.108 61.7159 34.2833 61.7159 34.5024V45.4203C61.7159 45.6394 61.5406 45.8147 61.3214 45.8147H58.924C58.7048 45.8147 58.5295 45.6394 58.5295 45.4203V34.5024C58.5295 34.2833 58.3542 34.108 58.1351 34.108H54.861C54.6463 34.108 54.4666 33.9326 54.4666 33.7135V31.5483C54.4666 31.3292 54.6419 31.1539 54.861 31.1539H65.4019C65.6211 31.1539 65.7964 31.3292 65.7964 31.5483" fill="white"/>
<path d="M71.5381 46.1302C70.381 46.1302 69.3335 45.8717 68.3956 45.3545C67.462 44.8373 66.7301 44.1229 66.2085 43.2068C65.6825 42.2908 65.424 41.2783 65.424 40.1607C65.424 38.4426 66.0025 37.0181 67.1596 35.8874C68.3167 34.7566 69.7762 34.1912 71.5381 34.1912C73.3001 34.1912 74.7333 34.7566 75.8948 35.8874C77.0518 37.0181 77.6304 38.4426 77.6304 40.1607C77.6304 41.8788 77.0475 43.2857 75.8816 44.4209C74.7157 45.5605 73.2694 46.1259 71.5381 46.1259M71.5381 43.2594C72.4191 43.2594 73.1379 42.9702 73.6945 42.3916C74.2512 41.8131 74.5317 41.068 74.5317 40.1607C74.5317 39.2534 74.2512 38.5083 73.6945 37.9298C73.1379 37.3512 72.4147 37.062 71.5294 37.062C70.644 37.062 69.9208 37.3512 69.3598 37.9298C68.8032 38.5083 68.5227 39.2534 68.5227 40.1607C68.5227 40.6078 68.5972 41.0285 68.7418 41.4186C68.8865 41.8087 69.0925 42.1374 69.3598 42.4004C69.6272 42.6677 69.9427 42.8737 70.3109 43.0271C70.6791 43.1805 71.0911 43.2594 71.5381 43.2594Z" fill="white"/>
<path d="M88.846 44.7366C87.873 45.6658 86.5888 46.1303 84.9934 46.1303C83.398 46.1303 82.1094 45.6614 81.1408 44.7278C80.1678 43.7942 79.6857 42.5626 79.6857 41.0418V34.9013C79.6857 34.6865 79.861 34.5068 80.0801 34.5068H82.3505C82.5696 34.5068 82.7449 34.6822 82.7449 34.9013V40.6868C82.7449 41.4976 82.9422 42.1287 83.341 42.5802C83.7399 43.036 84.2921 43.2595 84.9934 43.2595C85.6947 43.2595 86.2513 43.0316 86.6501 42.5802C87.049 42.1244 87.2462 41.4932 87.2462 40.6868V34.9013C87.2462 34.6865 87.4215 34.5068 87.6407 34.5068H89.911C90.1302 34.5068 90.3055 34.6822 90.3055 34.9013V41.0418C90.3055 42.5758 89.819 43.8118 88.8504 44.7366" fill="white"/>
<path d="M98.8696 34.441H99.4832C99.7024 34.441 99.8777 34.6163 99.8777 34.8354V36.9392C99.8777 37.1584 99.7024 37.3337 99.4832 37.3337H98.5584C97.695 37.3337 97.0726 37.5353 96.7045 37.9429C96.3363 38.3462 96.1478 39.0124 96.1478 39.9328V45.4246C96.1478 45.6437 95.9725 45.819 95.7534 45.819H93.483C93.2639 45.819 93.0886 45.6437 93.0886 45.4246V34.9012C93.0886 34.682 93.2639 34.5067 93.483 34.5067H94.7891C94.9513 34.5067 95.0959 34.6075 95.1529 34.7565L95.3721 35.3132C95.4729 35.5718 95.8016 35.6419 96.0076 35.4534C96.7352 34.7828 97.6906 34.4454 98.8653 34.4454" fill="white"/>
<path d="M58.0475 61.8431H63.1054C63.3202 61.8431 63.4999 62.0184 63.4999 62.2375V64.4027C63.4999 64.6219 63.3246 64.7972 63.1054 64.7972H54.8655C54.6464 64.7972 54.4711 64.6219 54.4711 64.4027V50.5308C54.4711 50.3116 54.6464 50.1363 54.8655 50.1363H62.8731C63.0879 50.1363 63.2676 50.3116 63.2676 50.5308V52.674C63.2676 52.8931 63.0923 53.0685 62.8731 53.0685H58.0475C57.8284 53.0685 57.6531 53.2438 57.6531 53.4629V55.5667C57.6531 55.7859 57.8284 55.9612 58.0475 55.9612H62.3297C62.5488 55.9612 62.7241 56.1365 62.7241 56.3557V58.4375C62.7241 58.6567 62.5488 58.832 62.3297 58.832H58.0475C57.8284 58.832 57.6531 59.0073 57.6531 59.2265V61.453C57.6531 61.6721 57.8284 61.8475 58.0475 61.8475" fill="white"/>
<path d="M69.9074 65.1127C68.9738 65.1127 68.1454 64.9461 67.4266 64.6087C66.7078 64.2712 66.1512 63.7978 65.7524 63.1842C65.428 62.6846 65.2352 62.1279 65.1782 61.5099C65.1563 61.2776 65.336 61.0716 65.5727 61.0716H67.786C67.9701 61.0716 68.1323 61.1987 68.1673 61.3784C68.2068 61.5844 68.2857 61.7641 68.3909 61.9219C68.5487 62.1498 68.7722 62.3208 69.0527 62.426C69.3332 62.5311 69.6532 62.5837 70.0169 62.5837C70.3106 62.5837 70.5736 62.5399 70.8146 62.4566C71.0513 62.3734 71.2485 62.2463 71.4019 62.0709C71.5553 61.8956 71.6342 61.6896 71.6342 61.453C71.6342 61.1067 71.4545 60.8437 71.0908 60.6772C70.727 60.5106 70.1835 60.3616 69.4559 60.2389C68.9957 60.1688 68.6144 60.0986 68.3164 60.0285C68.0139 59.9584 67.6589 59.8356 67.2469 59.6603C66.8349 59.485 66.5062 59.2878 66.2608 59.0643C66.0153 58.8407 65.805 58.5339 65.6209 58.1438C65.4412 57.7538 65.3491 57.2979 65.3491 56.7808C65.3491 55.7201 65.7655 54.8523 66.607 54.1861C67.4442 53.5155 68.5443 53.1824 69.9074 53.1824C71.2705 53.1824 72.3662 53.5286 73.1946 54.2167C73.9134 54.8128 74.321 55.5754 74.4174 56.5046C74.4437 56.7413 74.264 56.9517 74.0229 56.9517H71.8841C71.6956 56.9517 71.5334 56.8114 71.4984 56.6274C71.3713 55.9524 70.8146 55.6149 69.8329 55.6149C69.3595 55.6149 68.987 55.7113 68.724 55.9086C68.5399 56.0444 68.4172 56.2154 68.3646 56.4214C68.2813 56.7282 68.3733 57.07 68.6056 57.2892C68.6407 57.3199 68.6801 57.3505 68.7152 57.3768C68.8204 57.447 68.9826 57.5127 69.2061 57.5741C69.4296 57.6354 69.6181 57.6836 69.7715 57.7099C69.9249 57.7406 70.1572 57.7801 70.464 57.837C70.727 57.894 70.9198 57.9291 71.0294 57.951C71.139 57.9729 71.3274 58.0124 71.5948 58.0649C71.8578 58.1219 72.0594 58.1745 72.1909 58.2227C72.3224 58.2709 72.5064 58.3367 72.7343 58.42C72.9666 58.5032 73.1376 58.5909 73.2559 58.6829C73.3743 58.775 73.5233 58.8802 73.6942 59.0073C73.8695 59.1344 74.0054 59.2746 74.1018 59.428C74.1982 59.5814 74.2991 59.748 74.3955 59.9321C74.4919 60.1118 74.5576 60.3222 74.5927 60.5588C74.6278 60.7955 74.6453 61.0453 74.6453 61.3127C74.6453 62.4698 74.2114 63.3946 73.348 64.0871C72.4845 64.7796 71.3362 65.1215 69.9117 65.1215" fill="white"/>
<path d="M82.3023 62.0753H83.2929C83.512 62.0753 83.6873 62.2506 83.6873 62.4697V64.407C83.6873 64.6261 83.512 64.8014 83.2929 64.8014H81.5309C80.7069 64.8014 79.9925 64.6393 79.3833 64.3193C78.7741 63.9994 78.3095 63.5348 77.9895 62.9255C77.6696 62.3163 77.5074 61.5975 77.5074 60.756V56.3336C77.5074 56.1145 77.3321 55.9392 77.1129 55.9392H75.8463C75.6271 55.9392 75.4518 55.7639 75.4518 55.5447V55.4439C75.4518 55.3431 75.4913 55.2467 75.557 55.1722L79.8128 50.6578C79.8873 50.5789 79.9925 50.535 80.0977 50.535H80.4922V53.0947C80.4922 53.3138 80.6675 53.4891 80.8866 53.4891H83.2183C83.4375 53.4891 83.6128 53.6644 83.6128 53.8836V55.5447C83.6128 55.7639 83.4375 55.9392 83.2183 55.9392H80.948C80.7289 55.9392 80.5535 56.1145 80.5535 56.3336V60.3572C80.5535 60.9006 80.7026 61.3258 81.005 61.6238C81.3074 61.9219 81.7325 62.0753 82.2936 62.0753" fill="white"/>
<path d="M95.2013 53.4673H96.8011C97.0202 53.4673 97.1955 53.6426 97.1955 53.8617V64.3851C97.1955 64.6043 97.0202 64.7796 96.8011 64.7796H95.0917C94.912 64.7796 94.7542 64.6569 94.7104 64.4815L94.6797 64.3588C94.614 64.0915 94.2984 63.9775 94.0749 64.1353C93.1457 64.7884 92.0763 65.1171 90.871 65.1171C89.166 65.1171 87.7547 64.5473 86.6327 63.4121C85.5063 62.2725 84.9453 60.8481 84.9453 59.13C84.9453 57.4119 85.5063 56.0094 86.6327 54.8786C87.7547 53.7478 89.1704 53.1824 90.871 53.1824C92.1113 53.1824 93.2027 53.5242 94.145 54.2124C94.3598 54.3701 94.671 54.2693 94.7499 54.0107L94.8287 53.7522C94.877 53.5856 95.0304 53.476 95.2057 53.476M88.9118 61.339C89.4903 61.9263 90.2223 62.22 91.112 62.22C92.0018 62.22 92.7337 61.9263 93.321 61.339C93.9083 60.7517 94.202 60.0153 94.202 59.1212C94.202 58.2271 93.9083 57.4864 93.321 56.8991C92.7337 56.3118 92.0018 56.0181 91.1208 56.0181C90.5335 56.0181 90.0075 56.154 89.5386 56.4257C89.0696 56.6975 88.7058 57.0656 88.4384 57.5346C88.1711 58.0036 88.0396 58.5295 88.0396 59.1169C88.0396 60.011 88.3289 60.7517 88.9074 61.3346" fill="white"/>
<path d="M105.655 62.0753H106.645C106.865 62.0753 107.04 62.2506 107.04 62.4697V64.407C107.04 64.6261 106.865 64.8014 106.645 64.8014H104.883C104.059 64.8014 103.345 64.6393 102.736 64.3193C102.127 63.9994 101.662 63.5348 101.342 62.9255C101.022 62.3163 100.86 61.5975 100.86 60.756V56.3336C100.86 56.1145 100.685 55.9392 100.465 55.9392H99.1988C98.9796 55.9392 98.8043 55.7639 98.8043 55.5447V55.4439C98.8043 55.3431 98.8438 55.2467 98.9095 55.1722L103.165 50.6578C103.24 50.5789 103.345 50.535 103.45 50.535H103.845V53.0947C103.845 53.3138 104.02 53.4891 104.239 53.4891H106.571C106.79 53.4891 106.965 53.6644 106.965 53.8836V55.5447C106.965 55.7639 106.79 55.9392 106.571 55.9392H104.301C104.086 55.9392 103.906 56.1145 103.906 56.3336V60.3572C103.906 60.9006 104.055 61.3258 104.357 61.6238C104.66 61.9219 105.085 62.0753 105.646 62.0753" fill="white"/>
<path d="M120 59.0992C120 59.2789 119.991 59.463 119.978 59.6471C119.961 59.8487 119.785 60.0021 119.584 60.0021H111.892C111.629 60.0021 111.436 60.2563 111.51 60.5061C111.672 61.0321 111.935 61.4529 112.304 61.7684C112.786 62.1804 113.404 62.3864 114.158 62.3864C114.675 62.3864 115.144 62.2725 115.56 62.0402C115.915 61.8429 116.204 61.5887 116.428 61.2644C116.502 61.1548 116.621 61.0847 116.752 61.0847H119.185C119.47 61.0847 119.663 61.3827 119.549 61.6413C119.119 62.6099 118.479 63.4033 117.629 64.0169C116.625 64.7444 115.464 65.1082 114.153 65.1082C112.479 65.1082 111.081 64.534 109.963 63.3901C108.846 62.2462 108.289 60.8261 108.289 59.1387C108.289 58.4681 108.381 57.8282 108.569 57.2146C108.758 56.601 109.03 56.0487 109.385 55.5578C109.74 55.0713 110.156 54.6462 110.629 54.2912C111.103 53.9361 111.642 53.66 112.242 53.4628C112.843 53.2656 113.478 53.1691 114.149 53.1691C115.28 53.1691 116.296 53.4365 117.195 53.9668C118.093 54.4972 118.786 55.216 119.268 56.1232C119.75 57.0305 119.991 58.021 119.991 59.0992M114.158 55.7726C113.474 55.7726 112.895 55.961 112.431 56.338C112.098 56.6053 111.839 56.9472 111.659 57.3636C111.55 57.6178 111.747 57.9071 112.028 57.9071H116.367C116.66 57.9071 116.849 57.5959 116.717 57.3285C116.608 57.1094 116.481 56.9165 116.336 56.7412C116.069 56.4256 115.753 56.189 115.385 56.018C115.017 55.8515 114.605 55.7682 114.162 55.7682" fill="white"/>
</svg>
