<svg width="151" height="79" viewBox="0 0 151 79" fill="none" xmlns="http://www.w3.org/2000/svg">
<g opacity="0.85">
<path d="M73.2201 28.3147L81.6505 31.2835L96.1347 29.3841L86.7552 15.3744L47.1016 0.0588379L81.2341 23.0315L73.2201 28.3147Z" fill="white"/>
<path d="M57.5955 43.388C84.9299 33.415 99.1761 46.4148 99.1761 46.4148C100.057 42.6436 96.6078 39.341 93.3227 37.1326C91.062 35.6119 88.5923 34.425 86.0037 33.5747L13.6206 9.79376L71.0392 36.2634C62.0458 37.5984 57.594 43.3865 57.594 43.3865L57.5955 43.388Z" fill="white"/>
<path d="M21.7029 61.6028H28.4807V58.9546H21.7029V55.8059H29.3774V53.0954H18.3467V67.6913H29.6487V64.9808H21.7029V61.6028Z" fill="white"/>
<path d="M35.7372 53.0954H32.3389V67.6913H43.0155V64.9387H35.7372V53.0954Z" fill="white"/>
<path d="M48.2918 61.6028H55.0681V58.9546H48.2918V55.8059H55.9648V53.0954H44.9341V67.6913H56.2361V64.9808H48.2918V61.6028Z" fill="white"/>
<path d="M68.622 62.9899C69.5667 62.5793 70.2965 61.9814 70.8116 61.1964C71.3253 60.4114 71.5836 59.4697 71.5836 58.3713C71.5836 57.2729 71.3268 56.3486 70.8116 55.5563C70.2965 54.764 69.5667 54.1561 68.622 53.7324C67.676 53.3087 66.55 53.0968 65.244 53.0968H58.9263V67.6941H62.326V63.6066H65.2455C65.2963 63.6066 65.3413 63.6008 65.3906 63.6008L68.2274 67.6941H71.8564L68.6032 63.0001C68.6032 63.0001 68.6177 62.9957 68.6235 62.9928L68.622 62.9899ZM67.393 60.2475C66.8648 60.6929 66.0856 60.9149 65.0569 60.9149H62.3246V55.8479H65.0569C66.0856 55.8479 66.8634 56.0671 67.393 56.5053C67.9212 56.9435 68.1853 57.566 68.1853 58.3713C68.1853 59.1766 67.9212 59.8034 67.393 60.2475Z" fill="white"/>
<path d="M78.8196 53.0954L72.335 67.6927H75.7971L77.0972 64.5643H83.859L85.1591 67.6927H88.704L82.1555 53.0954H78.8196ZM78.1637 61.9989L80.4781 56.4342L82.7925 61.9989H78.1637Z" fill="white"/>
<path d="M87.8496 55.848H92.5205V67.6913H95.8985V55.848H100.569V53.0954H87.8496V55.848Z" fill="white"/>
<path d="M105.783 53.0954H102.383V67.6927H105.783V53.0954Z" fill="white"/>
<path d="M122.005 54.9716C121.283 54.291 120.438 53.7658 119.472 53.3972C118.505 53.0286 117.446 52.8444 116.291 52.8444C115.136 52.8444 114.077 53.0315 113.11 53.4074C112.144 53.7832 111.3 54.3113 110.577 54.9919C109.854 55.6739 109.294 56.469 108.898 57.3803C108.502 58.2915 108.303 59.2956 108.303 60.3941C108.303 61.4925 108.502 62.4792 108.898 63.3962C109.294 64.3133 109.854 65.1128 110.577 65.7948C111.3 66.4768 112.148 67.0049 113.121 67.3793C114.094 67.7551 115.156 67.9423 116.311 67.9423C117.466 67.9423 118.504 67.758 119.47 67.3895C120.437 67.0209 121.281 66.4971 122.004 65.8151C122.726 65.1346 123.287 64.3307 123.683 63.4064C124.079 62.4821 124.278 61.478 124.278 60.3926C124.278 59.3072 124.079 58.2857 123.683 57.3687C123.287 56.4516 122.726 55.6521 122.004 54.9701L122.005 54.9716ZM120.515 62.2804C120.286 62.8434 119.962 63.3367 119.546 63.7604C119.129 64.1841 118.646 64.5106 118.096 64.7399C117.546 64.9691 116.946 65.0838 116.293 65.0838C115.64 65.0838 115.035 64.9691 114.479 64.7399C113.923 64.5106 113.44 64.1841 113.029 63.7604C112.619 63.3367 112.299 62.8434 112.07 62.2804C111.841 61.7174 111.726 61.0891 111.726 60.3926C111.726 59.6961 111.841 59.0678 112.07 58.5048C112.299 57.9418 112.619 57.4485 113.029 57.0248C113.438 56.6011 113.922 56.2746 114.479 56.0453C115.035 55.8161 115.64 55.7014 116.293 55.7014C116.946 55.7014 117.548 55.8161 118.096 56.0453C118.645 56.2746 119.128 56.6011 119.546 57.0248C119.962 57.4485 120.286 57.9418 120.515 58.5048C120.744 59.0678 120.859 59.6976 120.859 60.3926C120.859 61.0876 120.744 61.7174 120.515 62.2804Z" fill="white"/>
<path d="M136.874 53.0954V61.951L129.617 53.0954H126.823V67.6913H130.16V58.8357L137.417 67.6913H140.21V53.0954H136.874Z" fill="white"/>
<path d="M16.6157 53.1592H13.0113L10.0962 57.0349L11.9912 59.5554L16.6157 53.1592Z" fill="white"/>
<path d="M10.0671 63.5442L13.1491 67.7174H17.0321L12.0667 60.8381L10.0671 63.5442Z" fill="white"/>
<path d="M9.65793 57.6168L5.15829 51.6342H0.799405L6.90678 60.0821L0.295898 69.2424H4.99142L9.63326 62.9566L11.6357 60.2446L9.65793 57.6168Z" fill="white"/>
<path d="M28.4574 77.02C28.4574 77.7353 27.9467 78.1445 26.9309 78.1445H25.062V73.9365H26.8149C27.7203 73.9365 28.2427 74.3341 28.2427 75.019C28.2427 75.4993 27.9931 75.8185 27.6216 75.9752C28.144 76.0957 28.4574 76.4497 28.4574 77.0214V77.02ZM25.4915 74.3036V75.8301H26.7858C27.4359 75.8301 27.8132 75.5718 27.8132 75.0669C27.8132 74.5619 27.4359 74.3036 26.7858 74.3036H25.4915ZM28.0279 76.9851C28.0279 76.4381 27.639 76.1972 26.9251 76.1972H25.4915V77.7774H26.9251C27.639 77.7774 28.0279 77.5365 28.0279 76.9837V76.9851Z" fill="white"/>
<path d="M32.2155 78.1445L31.2869 76.7921C31.1824 76.8038 31.0779 76.8096 30.9618 76.8096H29.8707V78.1445H29.4412V73.9365H30.9618C31.995 73.9365 32.6218 74.4778 32.6218 75.3788C32.6218 76.0405 32.2852 76.5019 31.6932 76.7007L32.6857 78.1431H32.2155V78.1445ZM32.1923 75.3803C32.1923 74.707 31.7628 74.3225 30.9502 74.3225H29.8707V76.4323H30.9502C31.7628 76.4323 32.1923 76.042 32.1923 75.3803Z" fill="white"/>
<path d="M33.6392 73.9365H34.0687V78.1445H33.6392V73.9365Z" fill="white"/>
<path d="M38.789 73.9365V78.1445H38.4349L35.8231 74.7302V78.1445H35.3936V73.9365H35.7476L38.3653 77.3508V73.9365H38.789Z" fill="white"/>
<path d="M42.9762 76.0405H43.3883V77.6454C43.0052 77.9994 42.4596 78.1808 41.8966 78.1808C40.6603 78.1808 39.7549 77.2725 39.7549 76.0405C39.7549 74.8086 40.6603 73.9017 41.9024 73.9017C42.5176 73.9017 43.0516 74.1063 43.4115 74.5083L43.1445 74.7912C42.802 74.443 42.3958 74.2979 41.9198 74.2979C40.9157 74.2979 40.1786 75.0379 40.1786 76.0405C40.1786 77.0432 40.9157 77.7832 41.914 77.7832C42.3029 77.7832 42.6627 77.6933 42.9762 77.4582V76.0391V76.0405Z" fill="white"/>
<path d="M44.603 73.9365H45.0325V78.1445H44.603V73.9365Z" fill="white"/>
<path d="M49.7528 73.9365V78.1445H49.3988L46.7869 74.7302V78.1445H46.3574V73.9365H46.7115L49.3291 77.3508V73.9365H49.7528Z" fill="white"/>
<path d="M53.9391 76.0405H54.3511V77.6454C53.9681 77.9994 53.4225 78.1808 52.8595 78.1808C51.6232 78.1808 50.7178 77.2725 50.7178 76.0405C50.7178 74.8086 51.6232 73.9017 52.8653 73.9017C53.4805 73.9017 54.0145 74.1063 54.3744 74.5083L54.1074 74.7912C53.7649 74.443 53.3586 74.2979 52.8827 74.2979C51.8786 74.2979 51.1415 75.0379 51.1415 76.0405C51.1415 77.0432 51.8786 77.7832 52.8769 77.7832C53.2658 77.7832 53.6256 77.6933 53.9391 77.4582V76.0391V76.0405Z" fill="white"/>
<path d="M57.877 74.3225H56.4492V73.938H59.7343V74.3225H58.3065V78.1445H57.877V74.3225Z" fill="white"/>
<path d="M63.8173 73.9365V78.1445H63.3936V76.203H60.8514V78.1445H60.4219V73.9365H60.8514V75.8112H63.3936V73.9365H63.8173Z" fill="white"/>
<path d="M68.0151 77.76V78.1445H65.1421V73.9365H67.9281V74.321H65.5716V75.8185H67.6727V76.1972H65.5716V77.76H68.0151Z" fill="white"/>
<path d="M70.9783 74.3225V75.9752H73.0794V76.3597H70.9783V78.1445H70.5488V73.9365H73.3348V74.321H70.9783V74.3225Z" fill="white"/>
<path d="M74.1895 76.3467V73.9365H74.619V76.3293C74.619 77.3261 75.0717 77.7832 75.861 77.7832C76.6504 77.7832 77.1089 77.3261 77.1089 76.3293V73.9365H77.5268V76.3467C77.5268 77.5554 76.9 78.1793 75.861 78.1793C74.8221 78.1793 74.1895 77.5539 74.1895 76.3467Z" fill="white"/>
<path d="M79.5323 74.3225H78.1045V73.938H81.3896V74.3225H79.9618V78.1445H79.5323V74.3225Z" fill="white"/>
<path d="M81.96 76.3467V73.9365H82.3895V76.3293C82.3895 77.3261 82.8422 77.7832 83.6315 77.7832C84.4209 77.7832 84.8794 77.3261 84.8794 76.3293V73.9365H85.2973V76.3467C85.2973 77.5554 84.6705 78.1793 83.6315 78.1793C82.5926 78.1793 81.96 77.5539 81.96 76.3467Z" fill="white"/>
<path d="M89.3671 78.1445L88.4385 76.7921C88.334 76.8038 88.2295 76.8096 88.1135 76.8096H87.0223V78.1445H86.5928V73.9365H88.1135C89.1466 73.9365 89.7734 74.4778 89.7734 75.3788C89.7734 76.0405 89.4368 76.5019 88.8448 76.7007L89.8373 78.1431H89.3671V78.1445ZM89.3439 75.3803C89.3439 74.707 88.9144 74.3225 88.1018 74.3225H87.0223V76.4323H88.1018C88.9144 76.4323 89.3439 76.042 89.3439 75.3803Z" fill="white"/>
<path d="M93.665 77.76V78.1445H90.792V73.9365H93.578V74.321H91.2215V75.8185H93.3226V76.1972H91.2215V77.76H93.665Z" fill="white"/>
<path d="M94.3804 77.8441C94.3804 77.6584 94.5197 77.5191 94.688 77.5191C94.8563 77.5191 95.0014 77.657 95.0014 77.8441C95.0014 78.0313 94.8563 78.175 94.688 78.175C94.5197 78.175 94.3804 78.0313 94.3804 77.8441Z" fill="white"/>
<path d="M98.2764 74.3225H96.8486V73.938H100.134V74.3225H98.706V78.1445H98.2764V74.3225Z" fill="white"/>
<path d="M100.404 76.0405C100.404 74.8144 101.309 73.9017 102.54 73.9017C103.77 73.9017 104.67 74.8086 104.67 76.0405C104.67 77.2725 103.759 78.1808 102.54 78.1808C101.321 78.1808 100.404 77.2667 100.404 76.0405ZM104.24 76.0405C104.24 75.0364 103.515 74.2979 102.54 74.2979C101.565 74.2979 100.828 75.0379 100.828 76.0405C100.828 77.0432 101.559 77.7832 102.54 77.7832C103.521 77.7832 104.24 77.0447 104.24 76.0405Z" fill="white"/>
<path d="M105.635 73.9365H107.289C108.589 73.9365 109.465 74.8028 109.465 76.0405C109.465 77.2782 108.589 78.1445 107.289 78.1445H105.635V73.9365ZM107.266 77.76C108.345 77.76 109.042 77.0504 109.042 76.0405C109.042 75.0306 108.345 74.321 107.266 74.321H106.064V77.7585H107.266V77.76Z" fill="white"/>
<path d="M112.922 77.02H110.658L110.171 78.1445H109.724L111.581 73.9365H112.005L113.862 78.1445H113.409L112.922 77.02ZM112.765 76.6601L111.79 74.4009L110.815 76.6601H112.765Z" fill="white"/>
<path d="M115.692 76.6891V78.1431H115.268V76.6891L113.643 73.9365H114.102L115.495 76.2988L116.888 73.9365H117.317L115.692 76.6891Z" fill="white"/>
<path d="M142.665 49.018H145.656V49.4983H144.421V52.8444H143.896V49.4983H142.665V49.018Z" fill="white"/>
<path d="M146.256 49.018H146.88L148.279 51.7068L149.668 49.018H150.296V52.8444H149.804L149.798 49.7885L148.437 52.4395H148.115L146.744 49.7885V52.8444H146.258V49.018H146.256Z" fill="white"/>
</g>
</svg>
